<svg width="16" height="16" viewBox="0 0 16 16" fill="none" xmlns="http://www.w3.org/2000/svg">
<g clip-path="url(#clip0_943_4057)">
<path d="M10.1712 9.08472C9.54097 9.08472 9.02832 9.5974 9.02832 10.2276C9.02832 10.8577 9.54101 11.3704 10.1712 11.3704C10.8013 11.3704 11.314 10.8577 11.314 10.2276C11.314 9.5974 10.8013 9.08472 10.1712 9.08472ZM10.1712 10.7174C9.9011 10.7174 9.68138 10.4976 9.68138 10.2276C9.68138 9.95753 9.9011 9.73781 10.1712 9.73781C10.4412 9.73781 10.6609 9.95753 10.6609 10.2276C10.6609 10.4976 10.4412 10.7174 10.1712 10.7174Z" fill="#02897A"/>
<path d="M6.0404 3.53441H9.95876C10.1391 3.53441 10.2853 3.38822 10.2853 3.20788C10.2853 3.02753 10.1391 2.88135 9.95876 2.88135H6.0404C5.86005 2.88135 5.71387 3.02753 5.71387 3.20788C5.71387 3.38822 5.86005 3.53441 6.0404 3.53441Z" fill="#02897A"/>
<path d="M2.41637 4.84056H13.5837C13.764 4.84056 13.9102 4.69437 13.9102 4.51403C13.9102 4.33369 13.764 4.1875 13.5837 4.1875H2.41637C2.23603 4.1875 2.08984 4.33369 2.08984 4.51403C2.08984 4.69437 2.23603 4.84056 2.41637 4.84056Z" fill="#02897A"/>
<path d="M2.41637 6.14659H13.5837C13.764 6.14659 13.9102 6.0004 13.9102 5.82006C13.9102 5.63972 13.764 5.49353 13.5837 5.49353H2.41637C2.23603 5.49353 2.08984 5.63972 2.08984 5.82006C2.08984 6.0004 2.23603 6.14659 2.41637 6.14659Z" fill="#02897A"/>
<path d="M2.41637 7.45274H6.23676C6.41711 7.45274 6.56329 7.30656 6.56329 7.12621C6.56329 6.94587 6.41711 6.79968 6.23676 6.79968H2.41637C2.23603 6.79968 2.08984 6.94587 2.08984 7.12621C2.08984 7.30656 2.23603 7.45274 2.41637 7.45274Z" fill="#02897A"/>
<path d="M15.6682 0.693604H0.321311C0.140968 0.693604 0 0.867009 0 1.04735V10.3534C0 10.5338 0.140968 10.6528 0.321311 10.6528H7.72538C7.60169 10.9793 7.46266 11.3417 7.65456 11.6734C7.77275 11.8777 7.96647 11.9855 8.17319 12.0469L7.02447 14.2123C6.98385 14.2888 6.97529 14.3793 7.00066 14.462C7.02604 14.5448 7.08325 14.6147 7.15975 14.6553L8.31334 15.2681C8.36212 15.294 8.41453 15.3064 8.46619 15.3064C8.58312 15.3064 8.69622 15.2435 8.75487 15.133L9.85471 13.0616C9.94965 13.1065 10.0544 13.1336 10.1715 13.1336C10.2777 13.1336 10.3739 13.1111 10.4618 13.0735L11.5554 15.133C11.6141 15.2435 11.7271 15.3065 11.8441 15.3065C11.8957 15.3065 11.9481 15.2943 11.9969 15.2683L13.1505 14.6558C13.227 14.6152 13.2842 14.5459 13.3096 14.4631C13.3349 14.3803 13.3264 14.2908 13.2858 14.2143L12.1415 12.0593C12.3588 11.9991 12.5648 11.887 12.6884 11.6734C12.8802 11.3417 12.7412 10.9793 12.6175 10.6528H15.6683C15.8486 10.6528 16.0001 10.5338 16.0001 10.3534V1.04729C15.9999 0.867009 15.8485 0.693604 15.6682 0.693604ZM8.33116 14.5384L7.75438 14.2321L8.84469 12.1787C8.91247 12.1939 8.97134 12.212 9.01203 12.2356C9.09181 12.2817 9.19906 12.4179 9.29365 12.5381C9.31306 12.5628 9.3329 12.588 9.35325 12.6134L8.33116 14.5384ZM10.536 12.1342C10.4209 12.2804 10.2632 12.4806 10.1714 12.4806C10.0796 12.4806 9.9219 12.2804 9.80681 12.1342C9.66946 11.9597 9.52743 11.7793 9.33912 11.6703C9.14462 11.5578 8.91206 11.5227 8.68712 11.4887C8.52753 11.4645 8.26034 11.4242 8.21978 11.3541C8.18403 11.2923 8.28259 11.0378 8.33553 10.9011C8.41934 10.6845 8.50609 10.4606 8.50609 10.2275C8.50609 9.99438 8.41941 9.77047 8.33553 9.55394C8.28259 9.41719 8.18403 9.16266 8.21978 9.10088C8.26031 9.03082 8.5275 8.99048 8.68712 8.96635C8.91203 8.93235 9.14459 8.89726 9.33912 8.7847C9.52746 8.67576 9.66946 8.49535 9.80681 8.32089C9.9219 8.17467 10.0796 7.97448 10.1714 7.97448C10.2632 7.97448 10.4209 8.17467 10.536 8.32089C10.6733 8.49535 10.8154 8.67576 11.0037 8.78473C11.1982 8.89726 11.4307 8.93238 11.6556 8.96638C11.8152 8.99051 12.0824 9.03088 12.123 9.10091C12.1587 9.16269 12.0602 9.41726 12.0072 9.55397C11.9234 9.77054 11.8367 9.99444 11.8367 10.2275C11.8367 10.4607 11.9234 10.6846 12.0072 10.9011C12.0602 11.0378 12.1587 11.2924 12.123 11.3542C12.0825 11.4242 11.8153 11.4646 11.6556 11.4887C11.4307 11.5227 11.1982 11.5578 11.0037 11.6703C10.8153 11.7793 10.6733 11.9597 10.536 12.1342ZM12.5558 14.2321L11.979 14.5384L10.9698 12.6379C10.9971 12.6041 11.0235 12.5707 11.0491 12.5382C11.1437 12.418 11.251 12.2817 11.3307 12.2356C11.3655 12.2155 11.4135 12.1993 11.469 12.1856L12.5558 14.2321ZM15.3469 9.99969H12.5336C12.557 9.93438 12.5867 9.85807 12.6162 9.78194C12.7402 9.46173 12.8808 9.10266 12.6882 8.76998C12.4905 8.42814 12.0817 8.36832 11.7532 8.31873C11.5885 8.29386 11.4181 8.26911 11.3307 8.21854C11.251 8.17239 11.1437 8.03664 11.0491 7.91648C10.8403 7.65117 10.5803 7.32126 10.1714 7.32126C9.76249 7.32126 9.50256 7.65158 9.29368 7.91689C9.19909 8.03704 9.09181 8.17332 9.01206 8.21948C8.92468 8.27004 8.75431 8.29579 8.58959 8.3207C8.26109 8.37032 7.85235 8.4321 7.65456 8.77392C7.46207 9.1066 7.60256 9.46179 7.72656 9.78201C7.75606 9.85819 7.78578 9.93447 7.80916 9.99975H0.65306V1.34669H15.3469V9.99969Z" fill="#02897A"/>
</g>
<defs>
<clipPath id="clip0_943_4057">
<rect width="16" height="16" fill="white"/>
</clipPath>
</defs>
</svg>
