<svg width="16" height="16" viewBox="0 0 16 16" fill="none" xmlns="http://www.w3.org/2000/svg">
<path fill-rule="evenodd" clip-rule="evenodd" d="M2.24023 4.80002V11.2C2.24023 11.907 2.81331 12.48 3.52023 12.48H12.4802C13.1872 12.48 13.7602 11.907 13.7602 11.2V4.80002C13.7602 4.09309 13.1872 3.52002 12.4802 3.52002H3.52023C2.81331 3.52002 2.24023 4.09309 2.24023 4.80002Z" stroke="#788080" stroke-width="0.96" stroke-linecap="round" stroke-linejoin="round"/>
<path d="M9.91992 6.72021H11.8399" stroke="#788080" stroke-width="0.96" stroke-linecap="round"/>
<path d="M9.91992 8.64014H11.8399" stroke="#788080" stroke-width="0.96" stroke-linecap="round"/>
<path fill-rule="evenodd" clip-rule="evenodd" d="M7.3598 6.72006C7.3598 7.42701 6.78675 8.00006 6.0798 8.00006C5.37288 8.00006 4.7998 7.42701 4.7998 6.72006C4.7998 6.01314 5.37288 5.44006 6.0798 5.44006C6.41926 5.44006 6.74483 5.57492 6.98489 5.81497C7.22496 6.05501 7.3598 6.38059 7.3598 6.72006Z" stroke="#788080" stroke-width="0.96" stroke-linecap="round" stroke-linejoin="round"/>
<path d="M3.51953 10.5602C5.30065 8.55256 7.39281 9.1836 8.63953 10.5602" stroke="#788080" stroke-width="0.96" stroke-linecap="round"/>
</svg>
