<svg width="16" height="16" viewBox="0 0 16 16" fill="none" xmlns="http://www.w3.org/2000/svg">
<g clip-path="url(#clip0_925_6040)">
<path d="M7.99967 1.33337C5.41967 1.33337 3.33301 3.42004 3.33301 6.00004C3.33301 9.50004 7.99967 14.6667 7.99967 14.6667C7.99967 14.6667 12.6663 9.50004 12.6663 6.00004C12.6663 3.42004 10.5797 1.33337 7.99967 1.33337ZM4.66634 6.00004C4.66634 4.16004 6.15967 2.66671 7.99967 2.66671C9.83967 2.66671 11.333 4.16004 11.333 6.00004C11.333 7.92004 9.41301 10.7934 7.99967 12.5867C6.61301 10.8067 4.66634 7.90004 4.66634 6.00004Z" fill="#A7ADAD"/>
<path d="M7.99967 7.66671C8.92015 7.66671 9.66634 6.92052 9.66634 6.00004C9.66634 5.07957 8.92015 4.33337 7.99967 4.33337C7.0792 4.33337 6.33301 5.07957 6.33301 6.00004C6.33301 6.92052 7.0792 7.66671 7.99967 7.66671Z" fill="#A7ADAD"/>
</g>
<defs>
<clipPath id="clip0_925_6040">
<rect width="16" height="16" fill="white"/>
</clipPath>
</defs>
</svg>
